# xmcd
#
# Track frame offsets:
#	150
#	15697
#	31462
#	50540
#	64377
#	78815
#	94320
#	109375
#	123317
#	137262
#	156272
#	169445
#	182730
#	195025
#	214072
#	227522
#	242142
#
# Disc length: 3442 seconds
#
# Revision: 0
# Processed by: cddbd v1.5.2PL0 Copyright (c) Steve Scherf et al.
# Submitted via: EasyCDDAExtractor 16.0.6.1
#
DISCID=e30d7011
DTITLE=Σύρος Νικόλας - Ξεχασμένο ταξίμι-Νορμανδία 032004, Ν. Σύρος
DYEAR=2005
DGENRE=Ρεμπέτικη
TTITLE0=Άνευ ερμηνευτού - Το μινόρε του τεκέ [ορχηστρικό]
TTITLE1=Σύρος Νικόλας - Απ' τον καιρό που άρχισα
TTITLE2=Σύρος Νικόλας - Ο διευθυντής
TTITLE3=Κουτρουμπής Δημήτρης - Της Πόλης το χαμάμ
TTITLE4=Σύρος Νικόλας - Ο τεκές της Μαριγώς
TTITLE5=Σύρος Θανάσης - Η στρατώνα
TTITLE6=Σύρος Νικόλας - Ώρες με θρέφει ο λουλάς
TTITLE7=Σύρος Νικόλας - Όταν μπουκάρω στον τεκέ
TTITLE8=Μαντζαβίνο Γιόλα - Ο μαχαλάς
TTITLE9=Σύρος Νικόλας - Ο ισοβίτης
TTITLE10=Σύρος Θανάσης - Η φωνή του αργιλέ
TTITLE11=Σύρος Νικόλας - Η Προύσα
TTITLE12=Σύρος Νικόλας - Η καπνουρλού
TTITLE13=Μαντζαβίνο Γιόλα - Ο Αμερικάνος
TTITLE14=Σύρος Νικόλας - Η ξυπόλυτη
TTITLE15=Σύρος Νικόλας - Πέντε μάγκες του Περαία
TTITLE16=Μαντζαβίνο Γιόλα-Σύρος Ν.-Σύρος Θ. - Το μινόρε της αυγής
EXTD=
EXTT0=
EXTT1=
EXTT2=
EXTT3=
EXTT4=
EXTT5=
EXTT6=
EXTT7=
EXTT8=
EXTT9=
EXTT10=
EXTT11=
EXTT12=
EXTT13=
EXTT14=
EXTT15=
EXTT16=
PLAYORDER=
